<?xml version="1.0" encoding="UTF-8" standalone="no"?>
<svg
   viewBox="0 0 3333 3333"
   shape-rendering="geometricPrecision"
   text-rendering="geometricPrecision"
   image-rendering="optimizeQuality"
   fill-rule="evenodd"
   clip-rule="evenodd"
   version="1.1"
   id="svg4"
   sodipodi:docname="linkedin-round-icon.svg"
   inkscape:version="1.2 (dc2aedaf03, 2022-05-15)"
   xmlns:inkscape="http://www.inkscape.org/namespaces/inkscape"
   xmlns:sodipodi="http://sodipodi.sourceforge.net/DTD/sodipodi-0.dtd"
   xmlns="http://www.w3.org/2000/svg"
   xmlns:svg="http://www.w3.org/2000/svg">
  <defs
     id="defs8" />
  <sodipodi:namedview
     id="namedview6"
     pagecolor="#ffffff"
     bordercolor="#000000"
     borderopacity="0.25"
     inkscape:showpageshadow="2"
     inkscape:pageopacity="0.0"
     inkscape:pagecheckerboard="0"
     inkscape:deskcolor="#d1d1d1"
     showgrid="false"
     inkscape:zoom="0.25112511"
     inkscape:cx="1652.5627"
     inkscape:cy="1345.9427"
     inkscape:window-width="1920"
     inkscape:window-height="1017"
     inkscape:window-x="-8"
     inkscape:window-y="-8"
     inkscape:window-maximized="1"
     inkscape:current-layer="svg4" />
  <path
     d="M1667 0c920 0 1667 746 1667 1667 0 920-746 1667-1667 1667C747 3334 0 2588 0 1667 0 747 746 0 1667 0zm-215 1336h342v175h5c48-86 164-175 338-175 361 0 428 225 428 517v596h-357v-528c0-126-3-288-186-288-186 0-214 137-214 279v537h-357V1336zm-247-309c0 102-83 186-186 186-102 0-186-83-186-186 0-102 83-186 186-186 102 0 186 83 186 186zm-371 309h371v1113H834V1336z"
     id="path2" />
  <path
     style="fill:#24292f;stroke:#000000;stroke-width:3.34893;fill-opacity:1"
     d="m 1556.9928,3328.3923 c -7.6655,-0.7382 -34.5445,-3.2952 -59.7312,-5.6822 -219.1561,-20.7699 -451.4585,-94.7807 -650.3295,-207.1929 C 716.6046,3041.8493 579.08068,2935.3228 473.14953,2825.9839 202.77065,2546.907 43.775351,2198.4851 7.8896988,1806.4146 2.4882478,1747.4008 2.5770254,1585.1738 8.0438124,1524.7971 43.99693,1127.7212 212.04463,768.72889 493.5424,487.64952 761.76846,219.8221 1100.9951,57.514841 1489.2975,11.217913 1561.4564,2.6144749 1758.7779,1.4444357 1827.7742,9.2108785 2191.7982,50.18657 2502.9713,186.0674 2768.5005,420.00049 c 314.9171,277.44421 508.0466,653.15751 555.0983,1079.88591 9.1674,83.1423 9.1849,249.9326 0.036,332.8923 -39.4037,357.2532 -175.296,668.6627 -407.0433,932.7751 -286.893,326.9595 -684.13,525.6112 -1122.6649,561.4265 -43.9684,3.5909 -204.3799,4.5468 -236.9337,1.412 z M 1206.5699,1893.4785 v -557.491 H 1019.4122 832.25448 v 557.491 557.491 h 187.15772 187.1577 z m 606.2577,237.9292 c 1.4321,-353.6803 0.3536,-338.369 27.9719,-397.1028 31.6376,-67.2812 102.2585,-103.4766 192.0734,-98.4435 103.7707,5.8151 155.3871,61.7277 168.9057,182.9641 2.6866,24.0937 4.2931,149.5701 4.2931,335.3222 v 296.8218 h 181.1846 181.1846 l -0.095,-301.6424 c -0.052,-165.9034 -1.7797,-333.0014 -3.8387,-371.3289 -6.3843,-118.8433 -24.6395,-199.243 -61.0299,-268.7903 -23.6521,-45.2024 -79.9501,-101.5087 -124.1851,-124.2034 -72.5139,-37.2031 -142.5828,-50.5793 -250.871,-47.8915 -57.48,1.4267 -78.2561,3.5375 -104.8906,10.6567 -46.5267,12.4362 -82.3033,27.9296 -119.3095,51.668 -32.8865,21.0959 -86.3345,73.1564 -99.0716,96.4999 -7.2072,13.2086 -7.2458,12.8679 -8.314,-73.3399 l -1.073,-86.6102 h -173.1428 -173.1428 v 557.491 557.491 h 181.0285 181.0285 z m -743.7399,-923.6281 c 61.4281,-15.4844 114.9083,-69.5262 131.378,-132.7575 17.0909,-65.6164 -1.685,-133.3389 -50.3865,-181.73836 -90.1865,-89.6272 -241.66284,-63.97572 -298.40396,50.53262 -14.53109,29.32495 -16.63092,37.15754 -18.43257,68.75574 -2.34154,41.0672 2.79192,68.039 19.11251,100.4189 39.51891,78.4053 128.07683,117.1364 216.73252,94.7886 z"
     id="path962" />
</svg>
